# xmcd CD database file
#
# Track frame offsets:
#	150
#	28817
#	47369
#	83453
#	100333
#	130095
#	142859
#	171946
#	197891
#	213563
#	231203
#	249128
#	272452
#	294524
#
# Disc length: 4192 seconds
#
# Revision: 0
# Processed by: cddbd v1.4PL0 Copyright (c) Steve Scherf et al.
# Submitted via: CDex 1.50Beta7
#
DISCID=ba105e0e
DTITLE=The Modern Jazz Quartet - Lonely Woman and Fontessa
DYEAR=1900
DGENRE=Jazz
TTITLE0=Lonely Woman
TTITLE1=Animal Dance
TTITLE2=New York 19
TTITLE3=Belkis
TTITLE4=Why Are You Blue
TTITLE5=Fugato
TTITLE6=Lamb, Leopard
TTITLE7=Trieste
TTITLE8=Versailles
TTITLE9=Angel Eyes
TTITLE10=Over The Rainbow
TTITLE11=Bluesology
TTITLE12=Willow Weep For Me
TTITLE13=Woodyh You
EXTD=
EXTT0=
EXTT1=
EXTT2=
EXTT3=
EXTT4=
EXTT5=
EXTT6=
EXTT7=
EXTT8=
EXTT9=
EXTT10=
EXTT11=
EXTT12=
EXTT13=
PLAYORDER=
